<?xml version="1.0" encoding="UTF-8"?>
<svg id="Layer_2" data-name="Layer 2" xmlns="http://www.w3.org/2000/svg" viewBox="0 0 696.46 279.42">
  <defs>
    <style>
      .cls-1 {
        fill: #b51d22;
      }

      .cls-2 {
        fill: #ffc10e;
      }

      .cls-3 {
        fill: #b61d22;
      }
    </style>
  </defs>
  <g id="Layer_1-2" data-name="Layer 1">
    <path class="cls-3" d="M362.99,223.95c0-20.62-12.37-36.87-37.38-43.57,16.5-6.19,29.13-19.85,29.13-39.44,0-22.17-18.09-48.47-66.81-48.47h-61.31c1.29,12.37,1.8,48.72,1.8,65.22v56.97c0,16.76-.51,52.38-1.8,64.76h66.77c46.66,0,69.61-26.34,69.61-55.47M267.6,125.73c4.12-.26,9.28-.77,17.02-.77,19.85,0,30.68,7.73,30.68,22.17s-11.34,22.69-31.19,22.69c-3.87,0-13.15-.26-16.5-.26v-43.82ZM288.74,246.12c-6.44,0-14.69-.52-21.14-1.03v-47.43c4.64-.77,10.31-.77,17.02-.77,26.04,0,37.64,10.05,37.64,24.49,0,17.01-13.15,24.75-33.52,24.75"/>
    <polygon class="cls-1" points="52.33 174.76 57.75 187.47 57.75 187.39 52.33 174.71 52.33 174.76"/>
    <path class="cls-3" d="M205.21,214.67l-7.99-57.23c-2.06-16.5-6.44-50.01-7.99-64.71h-25.78c-3.87,9.54-11.08,25.52-15.73,36.35l-39.18,87.91-39.96-87.39c-5.15-10.83-12.12-26.55-16.76-37.12h-31.89c-1.29,0-2.16,1.32-1.65,2.5l5.85,13.72c-1.71,15.71-4.38,36.65-6.08,48.75l-7.73,57.23c-2.32,17.02-7.22,51.09-10.31,64.76h40.23c.64-9.46,2.95-30.71,4.11-39.75l7.98-64.91v-.05s5.42,12.68,5.42,12.68l39.28,92.03h18.96c5.6-13.82,33.09-77.96,45.39-106.26l8.77,66.51c1.36,9.09,3.52,29.84,4.37,39.75h41.86c-3.62-19.02-9.3-51.25-11.17-64.76"/>
    <path class="cls-3" d="M487.11,92.47c-4.38,12.89-10.95,31.45-16.1,45.89l-29.64,81.21-42.36-113.33,4.81-11.26c.51-1.19-.36-2.5-1.65-2.5h-54.24c7.22,15.73,17.65,39.96,24.35,56.2l55.01,130.75h27.9c4.75-14.25,10.95-31.56,19.43-51.35l56.83-135.6h-44.34Z"/>
    <g>
      <path class="cls-2" d="M579.96,64.67h30.17l2.02-6.23h-38.41c0,3.44,2.79,6.23,6.23,6.23"/>
      <path class="cls-2" d="M637.72,75.83h-6.53c-1.88-5.77-6.62-20.45-8.47-26.18-1.58-4.87-.23-8.45,2.19-13.41,3.4,10.56,9.64,29.74,12.81,39.59"/>
      <path class="cls-2" d="M588.27,79.17l-17.6,42.46c3.17,1.38,6.86-.13,8.13-3.35l12.89-30.85c1.08-2.6.24-5.6-2.03-7.26l-1.39-1.01Z"/>
      <path class="cls-2" d="M628.4,103.46c-.82-2.51.08-5.27,2.22-6.82l22.41-16.15c2.96-2.14,7.03-1.82,9.62.76l-33.57,24.3-.69-2.1Z"/>
      <path class="cls-2" d="M631.64,132.59l-32.28-25.76.74-.66c2.21-1.99,5.53-2.09,7.85-.24l22.25,17.74c2.71,2.16,3.34,6.03,1.46,8.94h-.01Z"/>
      <path class="cls-2" d="M695.49,64.63h-39.72c-3.33,0-6.04-2.7-6.04-6.04h43.46l2.3,6.04Z"/>
      <path class="cls-2" d="M649.43,75.83h-6.49c-3.46-11.21-10.1-31.57-14.01-42.63-1.78-5.02-1.28-9.32,1.85-14.86,5.38,16.54,13.49,41.63,18.65,57.49"/>
      <path class="cls-2" d="M610.67,42.11c5.63-17.32,9.55-29.36,13.7-42.11,2.81,5.43,3.54,9.64,1.93,14.73l-8.91,27.39h-6.72Z"/>
      <path class="cls-2" d="M611.42,3.46l-12.8,38.65h6.69l13.94-42.11h-3.04c-2.18,0-4.11,1.39-4.79,3.46"/>
      <line class="cls-2" x1="624.37" x2="610.67" y2="42.11"/>
      <path class="cls-2" d="M691.28,75.83h-31.93c-3.28,0-5.93-2.66-5.93-5.93h43.04v.76c0,2.86-2.32,5.17-5.17,5.17"/>
      <path class="cls-2" d="M613.82,53.27h-49.42c-3.12,0-5.65-2.53-5.65-5.65h56.9l-1.83,5.65Z"/>
      <path class="cls-2" d="M535.69,47.55l36.63,26.56.82-2.37c.66-1.94-.02-4.08-1.68-5.28l-21.1-15.88c-2.65-1.92-5.82-2.96-9.09-2.98l-5.58-.04Z"/>
      <path class="cls-2" d="M532.03,58.71l36.49,26.53c1.24-3.75-.09-7.88-3.29-10.2l-31.16-22.58-2.04,6.24Z"/>
      <path class="cls-2" d="M579.46,72.56l-24.17,58.11c2.61,2.02,6.43.98,7.66-2.08l19.95-47.75c1.09-2.6.24-5.61-2.04-7.26l-1.4-1.01Z"/>
      <path class="cls-2" d="M634.24,107.76l37.65-27.27c3.02-2.19,7.18-1.86,9.81.78l-48.96,35.46-.71-2.17c-.82-2.51.07-5.26,2.21-6.81"/>
      <path class="cls-2" d="M657.52,157l-12.02-36.85c-1.12-3.45.51-7.19,3.8-8.72l13.52,41.43-5.29,4.14Z"/>
      <path class="cls-2" d="M639.73,118.55l13.52,41.43c-2.98,1.34-6.46-.2-7.48-3.3l-9.72-29.79c-1.08-3.31.51-6.9,3.68-8.33"/>
      <path class="cls-2" d="M636.71,151.13l-45.92-36.5.8-.74c2.2-2.02,5.54-2.13,7.88-.27l35.35,28.08c2.84,2.26,3.64,6.25,1.89,9.43Z"/>
      <path class="cls-2" d="M568.73,157.68l32.18-28.72c-2.76-2.25-6.75-2.17-9.41.19l-28.37,25.12,5.61,3.4Z"/>
      <path class="cls-2" d="M559.39,151.16l32.6-29.33-.51-.48c-2.3-2.16-5.87-2.19-8.22-.08l-23.37,21.04c-2.57,2.32-2.79,6.27-.49,8.86"/>
    </g>
    <polygon class="cls-1" points="52.33 174.76 57.75 187.47 57.75 187.39 52.33 174.71 52.33 174.76"/>
  </g>
</svg>