<svg width="8" height="6" viewBox="0 0 8 6" fill="none" xmlns="http://www.w3.org/2000/svg">
<path d="M0.292757 1.29277C0.658857 0.926565 1.23786 0.904066 1.63066 1.22437L1.70676 1.29277L3.70676 3.29277L3.78886 3.36697C3.87386 3.43667 3.96916 3.49367 4.07106 3.53587C4.20696 3.59217 4.35266 3.62087 4.49976 3.62087C4.64686 3.62087 4.79256 3.59217 4.92846 3.53587C5.06456 3.47957 5.18866 3.39687 5.29276 3.29277C5.39686 3.18857 5.47956 3.06447 5.53586 2.92847C5.57806 2.82667 5.60516 2.71937 5.61596 2.61007L5.62086 2.49977C5.62086 2.35267 5.59216 2.20697 5.53586 2.07107C5.49366 1.96917 5.43666 1.87377 5.36696 1.78887L5.29276 1.70677L5.22436 1.63067C4.90406 1.23787 4.92666 0.658866 5.29276 0.292766C5.65886 -0.0734339 6.23786 -0.0959343 6.63066 0.224366L6.70676 0.292766L6.81226 0.404066C7.05266 0.669266 7.24626 0.974066 7.38356 1.30547C7.54036 1.68407 7.62086 2.08987 7.62086 2.49977L7.61696 2.65307C7.59936 3.01057 7.52076 3.36277 7.38356 3.69407C7.22666 4.07277 6.99666 4.41697 6.70676 4.70677C6.41696 4.99667 6.07276 5.22667 5.69406 5.38357C5.31546 5.54037 4.90966 5.62087 4.49976 5.62087C4.08996 5.62087 3.68406 5.54037 3.30546 5.38357C2.97406 5.24627 2.66926 5.05267 2.40406 4.81227L2.29276 4.70677L0.292757 2.70677L0.224357 2.63067C-0.0959732 2.23787 -0.0733829 1.65887 0.292757 1.29277Z" fill="#004050"/>
</svg>
