<svg width="18" height="22" viewBox="0 0 18 22" fill="none" xmlns="http://www.w3.org/2000/svg">
<path d="M16 5C13.6805 5 10.9706 3.66341 9.1104 2.04004C9.0796 2.01374 9.0405 2 9 2C8.9595 2 8.9204 2.01472 8.8896 2.04102L8.8887 2.04004C7.0971 3.60202 4.48931 4.91551 2.21875 4.9961L2 5L2 12L2.00879 12.4121C2.09782 14.4375 2.8465 15.9389 3.98633 17.1064C5.07404 18.2204 6.55305 19.0645 8.2539 19.7236L8.9961 19.9951L9.0186 20.0019C11.0236 19.3022 12.7728 18.3815 14.0137 17.1084C15.229 15.8615 16 14.2358 16 12L16 5ZM18 12C18 14.7641 17.021 16.8893 15.4463 18.5049C13.8988 20.0925 11.8204 21.1446 9.6689 21.8945L9.6611 21.8974C9.233 22.0425 8.7688 22.0373 8.3438 21.8847C8.3379 21.8827 8.3321 21.8809 8.3262 21.8789C8.3246 21.8783 8.3228 21.8785 8.3213 21.8779V21.8769C6.17204 21.1324 4.09956 20.0851 2.55566 18.5039C1.07782 16.9903 0.12517 15.0283 0.0117199 12.5117L0 12L0 5C0.00012 4.46973 0.21097 3.96091 0.58594 3.58594C0.96099 3.21101 1.46967 3 2 3L2.32129 2.98828C3.95847 2.86776 6.05353 1.86258 7.582 0.527347L7.5908 0.520507L7.7422 0.401367C8.1082 0.141047 8.5477 0 9 0C9.4523 0 9.8918 0.141047 10.2578 0.401367L10.4092 0.520507L10.418 0.527347L10.7324 0.791987C12.3383 2.08726 14.4277 3 16 3C16.5303 3 17.039 3.21101 17.4141 3.58594C17.789 3.96091 17.9999 4.46973 18 5L18 12Z" fill="#2563EB"/>
</svg>
