<svg width="30" height="30" viewBox="0 0 30 30" fill="none" xmlns="http://www.w3.org/2000/svg">
<path d="M12.3534 0.178187C15.4527 -0.310075 18.6209 0.212208 21.3933 1.65756L21.9414 1.95888L22.0558 2.03162C22.6029 2.42554 22.7737 3.17804 22.4298 3.77465C22.0856 4.37121 21.3485 4.60044 20.7335 4.32405L20.6127 4.26171L20.1633 4.01623C17.8953 2.83384 15.3034 2.40635 12.7679 2.80572C10.0633 3.23181 7.58614 4.57243 5.75024 6.6035C3.91436 8.63466 2.83002 11.2342 2.67851 13.9678C2.52705 16.7016 3.3174 19.4055 4.9177 21.627C6.51797 23.8485 8.83202 25.4546 11.4729 26.1768C14.1137 26.899 16.9228 26.6942 19.4308 25.5962C21.939 24.4983 23.9952 22.5729 25.256 20.1424C26.438 17.864 26.854 15.2701 26.4509 12.7443L26.3587 12.2404L26.3393 12.1054C26.2723 11.4349 26.7221 10.8091 27.3965 10.6714C28.0715 10.5339 28.7313 10.9341 28.9318 11.578L28.9655 11.7092L29.0773 12.3248C29.5699 15.4123 29.0609 18.5824 27.616 21.3672C26.0749 24.3377 23.5627 26.691 20.4972 28.0328C17.4319 29.3746 13.9992 29.6245 10.7715 28.742C7.54372 27.8592 4.71494 25.897 2.75904 23.1818C0.803169 20.4664 -0.162673 17.1623 0.0224061 13.8211C0.207542 10.4798 1.53342 7.3028 3.77733 4.82021C6.02121 2.33776 9.04799 0.698975 12.3534 0.178187Z" fill="#3B82F6"/>
</svg>
