<svg width="19" height="21" viewBox="0 0 19 21" fill="none" xmlns="http://www.w3.org/2000/svg">
<path d="M9.2 0C9.68291 0 10.1569 0.127613 10.5755 0.368368L10.5764 0.367466L17.0164 4.04747L17.02 4.05016L17.1736 4.14539C17.5244 4.37985 17.8179 4.69241 18.0299 5.05911C18.2719 5.47805 18.3995 5.95346 18.4 6.4373L18.4 13.7991C18.3995 14.283 18.2719 14.7583 18.0299 15.1773C17.7876 15.5964 17.4392 15.9443 17.02 16.1863L17.0164 16.1889L10.5764 19.8689L10.5755 19.868C10.1569 20.1088 9.68291 20.2364 9.2 20.2364C8.71682 20.2364 8.24237 20.109 7.82359 19.868L1.3836 16.1889L1.38 16.1863C0.960885 15.9443 0.612352 15.5964 0.370153 15.1773C0.158249 14.8106 0.0343344 14.4007 0.00629279 13.9797L0 13.7991L0 6.4373L0.00629279 6.25583C0.0344264 5.83514 0.158415 5.42556 0.370153 5.05911C0.612343 4.64013 0.960922 4.29216 1.38 4.05016L1.3836 4.04747L7.82359 0.367466C8.24237 0.126463 8.71682 0 9.2 0ZM9.2 1.84C9.03854 1.84 8.87984 1.88238 8.74 1.96309L8.73641 1.96489L2.2991 5.64219L2.3 5.64309C2.16028 5.72376 2.04383 5.84033 1.96309 5.98C1.88253 6.11956 1.84017 6.27796 1.84 6.43911L1.84 13.7973L1.84809 13.9177C1.86393 14.0366 1.9027 14.1519 1.96309 14.2564C2.04311 14.3948 2.15834 14.51 2.2964 14.5906L8.73641 18.2706L8.74 18.2733L8.84782 18.3264C8.95905 18.3725 9.07874 18.3964 9.2 18.3964C9.36146 18.3964 9.52016 18.3541 9.66 18.2733L9.66359 18.2706L16.1036 14.5906C16.2417 14.51 16.3569 14.3948 16.4369 14.2564C16.5173 14.1171 16.5596 13.959 16.56 13.7982L16.56 6.43911L16.5519 6.31872C16.5361 6.19977 16.4973 6.08459 16.4369 5.98C16.3562 5.84033 16.2397 5.72376 16.1 5.64309L9.66359 1.96489L9.66 1.96309C9.52016 1.88238 9.36146 1.84 9.2 1.84Z" fill="#00CC61"/>
</svg>
