<svg width="20" height="22" viewBox="0 0 20 22" fill="none" xmlns="http://www.w3.org/2000/svg">
<path d="M11.3546 0.00718917C11.607 -0.0176368 11.8619 0.0220893 12.0948 0.122419L12.2091 0.178089L12.3185 0.242539C12.5311 0.380659 12.7049 0.570609 12.8243 0.794299L12.88 0.908559L12.9249 1.0277C13.0047 1.26804 13.0228 1.52479 12.9767 1.77379L12.9474 1.89781C12.9438 1.91075 12.9407 1.92409 12.9366 1.93688L11.0167 7.95641L11.0001 8.00328H18.003C18.3805 8.00255 18.7507 8.10826 19.0704 8.30895C19.3909 8.51015 19.6473 8.79865 19.8107 9.14003C19.974 9.48133 20.0377 9.86183 19.9933 10.2376C19.9544 10.5664 19.8346 10.8797 19.6456 11.1497L19.5597 11.263L19.5011 11.3294L9.60068 21.5296L9.59968 21.5286C9.38098 21.7625 9.09428 21.9224 8.77838 21.9808C8.44388 22.0427 8.09798 21.9889 7.79794 21.8284C7.49794 21.668 7.26129 21.4096 7.12704 21.097C6.99295 20.7845 6.96947 20.4357 7.05966 20.1077L7.0704 20.0687L8.99028 14.0492L9.00688 14.0033L2.00302 14.0033C1.6259 14.0038 1.25607 13.8971 0.936611 13.6966C0.616301 13.4955 0.359711 13.2077 0.196381 12.8665C0.0330107 12.5251 -0.0306493 12.1438 0.0137607 11.7679C0.0582207 11.3922 0.208981 11.0363 0.447361 10.7425L0.505951 10.6761L10.4064 0.476919C10.6251 0.242869 10.9127 0.0841992 11.2286 0.0257392L11.3546 0.00718917ZM2.00595 12.0033L9.00298 12.0033C9.32558 12.0027 9.64358 12.08 9.92978 12.2288C10.2167 12.3781 10.4637 12.5943 10.6485 12.8597C10.8334 13.1252 10.9509 13.4323 10.9913 13.7533C11.0296 14.0579 10.9939 14.3659 10.8937 14.6556L10.8966 14.6566L9.62998 18.6273L18.0011 10.0033H11.003C10.6809 10.0037 10.3631 9.92633 10.0773 9.77773C9.79028 9.62843 9.54338 9.41133 9.35848 9.14583C9.17378 8.88049 9.05618 8.57408 9.01568 8.25328C8.97728 7.94826 9.01188 7.63907 9.11238 7.34899H9.11048L10.3761 3.37731L2.00595 12.0033Z" fill="#9333EA"/>
</svg>
