<svg width="22" height="19" viewBox="0 0 22 19" fill="none" xmlns="http://www.w3.org/2000/svg">
<path d="M16 0.000988347C17.5527 -0.0231217 19.0529 0.564269 20.1758 1.63771C21.303 2.71542 21.959 4.19496 22 5.75392V5.78029C22 8.06848 21.203 11.2638 20.0391 13.8789C19.4546 15.1921 18.751 16.4201 17.9609 17.3369C17.1994 18.2207 16.1952 19 15 19C14.1386 19 13.3127 18.637 12.7197 18.3975C12.0494 18.1268 11.5305 17.9405 11 17.9405C10.4695 17.9405 9.9506 18.1268 9.2803 18.3975C8.68729 18.637 7.86138 19 7 19C5.80476 19 4.80064 18.2207 4.03906 17.3369C3.24899 16.4201 2.54544 15.1921 1.96094 13.8789C0.79701 11.2638 5e-05 8.06848 0 5.78029L0 5.75587C0.03789 4.19536 0.69306 2.71353 1.82129 1.63478C2.94473 0.560768 4.44656 -0.0257417 6 0.000988347L6.00293 0.000988347C6.00878 0.00108835 6.01466 -0.000111553 6.02051 8.44686e-06L6.01953 0.000988347C7.33784 0.00517835 8.49157 0.432378 9.4102 0.898448C9.8732 1.13339 10.2879 1.38439 10.6387 1.60353C10.7725 1.68712 10.892 1.76196 11 1.83009C11.108 1.76196 11.2275 1.68712 11.3613 1.60353C11.7121 1.38439 12.1268 1.13339 12.5898 0.898448C13.5087 0.432268 14.6627 0.00496835 15.9814 0.000988347C15.986 0.000908347 15.9906 0.00105835 15.9951 0.000988347C15.9967 0.000988347 15.9984 0.000988347 16 0.000988347ZM5.97949 2.00001C4.94778 1.97865 3.94904 2.367 3.20312 3.08009C2.45918 3.79144 2.02695 4.76813 2 5.79689C2.00405 7.72868 2.70627 10.6338 3.78906 13.0664C4.32946 14.2804 4.93866 15.3164 5.55469 16.0313C6.19932 16.7793 6.69525 17 7 17C7.38843 17 7.81274 16.8335 8.53223 16.543C9.1743 16.2837 10.0306 15.9405 11 15.9405C11.9694 15.9405 12.8257 16.2837 13.4678 16.543C14.1873 16.8335 14.6116 17 15 17C15.3048 17 15.8007 16.7793 16.4453 16.0313C17.0613 15.3164 17.6705 14.2804 18.2109 13.0664C19.2934 10.6346 19.9945 7.73058 19.999 5.79884C19.97 4.77025 19.5378 3.79428 18.7939 3.08302C18.0948 2.41462 17.1742 2.03055 16.2119 2.00099L16.0186 2.00001C16.0124 2.00013 16.0062 2.00001 16 2.00001C15.1065 2.00001 14.2669 2.29007 13.4951 2.68165C13.1107 2.87668 12.7544 3.09149 12.4209 3.29982C12.1066 3.49614 11.7661 3.71747 11.4883 3.87306C11.185 4.04272 10.815 4.04272 10.5117 3.87306C10.2339 3.71747 9.8934 3.49614 9.5791 3.29982C9.2456 3.09149 8.88927 2.87668 8.50488 2.68165C7.82969 2.3391 7.10261 2.07464 6.33301 2.01368L6 2.00001C5.99316 2.00001 5.98633 2.00015 5.97949 2.00001Z" fill="white"/>
</svg>
