<svg width="13" height="21" viewBox="0 0 13 21" fill="none" xmlns="http://www.w3.org/2000/svg">
<path d="M2.09101 0.0041688C2.6409 0.0542988 3.04628 0.541159 2.99629 1.09108L2.03828 11.6243L8.20723 17.7933C8.41751 18.0036 8.7028 18.1214 9.00018 18.1214C9.29758 18.1214 9.58288 18.0036 9.79318 17.7933C10.0035 17.583 10.1213 17.2977 10.1213 17.0003C10.1213 16.74 10.031 16.4889 9.86738 16.2894L9.79318 16.2073L9.72478 16.1312C9.40448 15.7384 9.42708 15.1594 9.79318 14.7933C10.1593 14.4272 10.7383 14.4046 11.1311 14.7249L11.2072 14.7933L11.3137 14.9056C11.8322 15.4782 12.1213 16.2242 12.1213 17.0003C12.1213 17.8281 11.7926 18.622 11.2072 19.2073C10.6219 19.7927 9.82798 20.1214 9.00018 20.1214C8.17237 20.1214 7.37852 19.7927 6.79316 19.2073L0.293163 12.7073C0.0833133 12.4975 -0.0227657 12.205 0.00410332 11.9095L1.0041 0.909439C1.05423 0.359559 1.54109 -0.0458212 2.09101 0.0041688Z" fill="#004050"/>
</svg>
