<svg width="14" height="16" viewBox="0 0 14 16" fill="none" xmlns="http://www.w3.org/2000/svg">
<path d="M12 11.5C12 10.837 11.7364 10.2013 11.2676 9.7324C10.8573 9.3222 10.3194 9.0695 9.7471 9.0127L9.5 9H4.5C3.30653 9 2.16227 8.5256 1.31836 7.6816C0.52708 6.8904 0.0609299 5.83506 0.00585985 4.72266L0 4.5C0 3.30653 0.47445 2.16227 1.31836 1.31836C2.16227 0.47445 3.30653 0 4.5 0L12 0C12.5523 0 13 0.44772 13 1C13 1.55228 12.5523 2 12 2L4.5 2C3.83696 2 3.20126 2.26358 2.73242 2.73242C2.26358 3.20126 2 3.83696 2 4.5L2.0127 4.74707C2.06952 5.31937 2.32219 5.85735 2.73242 6.2676C3.20126 6.7364 3.83696 7 4.5 7L9.5 7L9.7227 7.0059C10.8351 7.0609 11.8904 7.5271 12.6816 8.3184C13.5256 9.1623 14 10.3065 14 11.5C14 12.6935 13.5256 13.8377 12.6816 14.6816C11.8904 15.4729 10.8351 15.9391 9.7227 15.9941L9.5 16L1 16C0.44772 16 0 15.5523 0 15C0 14.4477 0.44772 14 1 14L9.5 14L9.7471 13.9873C10.3194 13.9305 10.8573 13.6778 11.2676 13.2676C11.7364 12.7987 12 12.163 12 11.5Z" fill="#004050"/>
</svg>
