<svg width="17" height="17" viewBox="0 0 17 17" fill="none" xmlns="http://www.w3.org/2000/svg">
<path d="M7.41404 11.2932C7.80444 10.9029 8.43764 10.903 8.82814 11.2932L11.3281 13.7932L11.4111 13.8684C11.6105 14.0316 11.8611 14.1222 12.1211 14.1223L12.2324 14.1164C12.489 14.0909 12.7301 13.9771 12.914 13.7932C13.098 13.6092 13.2118 13.3682 13.2373 13.1115L13.2421 13.0012C13.2421 12.7409 13.1518 12.4898 12.9882 12.2902L12.914 12.2082L9.03414 8.32732C8.65924 7.95295 8.15104 7.74338 7.62114 7.74338C7.09114 7.74344 6.58294 7.95386 6.20804 8.32832L6.20704 8.32732L5.32814 9.20822C4.74284 9.79332 3.94876 10.1223 3.1211 10.1223C2.29341 10.1222 1.49936 9.79342 0.91406 9.20822C0.36529 8.65942 0.0421796 7.92696 0.00390959 7.15548L0 7.00119C0 6.17336 0.3287 5.37854 0.91406 4.79318L3.72559 1.98263L3.92969 1.78732C4.96984 0.832848 6.28364 0.224258 7.68944 0.0509878C9.18844 -0.133722 10.7064 0.186528 12.0029 0.961148L12.4726 1.24142L12.4785 1.24435L12.5595 1.28927C12.7263 1.36984 12.9124 1.4019 13.0966 1.38302L13.1884 1.36935L14.9238 1.02072L15.0254 1.00509C15.5298 0.955878 15.9994 1.29633 16.1015 1.80392C16.2102 2.34523 15.8596 2.87179 15.3183 2.98068L13.5781 3.33127L13.5742 3.33224C12.8441 3.47595 12.0868 3.34255 11.4492 2.9592L10.9795 2.6799L10.9785 2.67892C10.0637 2.13199 8.99234 1.90605 7.93454 2.03634C6.87674 2.1667 5.89234 2.64602 5.13774 3.39865L2.32813 6.20822C2.11806 6.41847 2 6.70396 2 7.00119L2.00586 7.11154C2.03134 7.36805 2.14435 7.60923 2.32813 7.79318C2.53836 8.00342 2.82379 8.12222 3.1211 8.12232C3.41849 8.12232 3.70378 8.00342 3.91406 7.79318L4.79394 6.9133L4.93844 6.77658C5.67194 6.11323 6.62744 5.74343 7.62114 5.74338C8.61494 5.74338 9.57114 6.11302 10.3046 6.77658L10.4482 6.9133L14.3281 10.7932L14.4355 10.9055C14.9539 11.478 15.2421 12.2251 15.2421 13.0012L15.2392 13.1555C15.201 13.927 14.8769 14.6594 14.3281 15.2082C13.7794 15.7567 13.0475 16.08 12.2763 16.1184L12.1211 16.1223C11.3451 16.1222 10.5988 15.833 10.0263 15.3146L9.91404 15.2082L7.41404 12.7082C7.02354 12.3177 7.02354 11.6837 7.41404 11.2932Z" fill="#004050"/>
</svg>
